<?xml version="1.0" encoding="UTF-8"?>
<svg id="uuid-a7d1776c-631d-426e-938c-5bb2d37a68e4" data-name="Layer 1" xmlns="http://www.w3.org/2000/svg" xmlns:xlink="http://www.w3.org/1999/xlink" viewBox="0 0 332.37 125">
  <defs>
    <style>
      .uuid-0b79bd89-887c-409b-82ab-3bca24e21510 {
        fill: #edf0f1;
        font-family: Batangas-Bold, Batangas;
        font-size: 60px;
        font-weight: 700;
      }

      .uuid-546d7e45-e0f8-41b3-b823-6f473466cf1e {
        letter-spacing: -.12em;
      }

      .uuid-741216a8-f51e-48bb-8482-09a5bdd6dd69 {
        fill: none;
      }

      .uuid-741216a8-f51e-48bb-8482-09a5bdd6dd69, .uuid-b3a51a88-96bb-454e-96ba-201dd02d9236 {
        stroke-width: 0px;
      }

      .uuid-b8d41c8b-9805-4837-b0ea-375c650dd6c4 {
        clip-path: url(#uuid-2394d84c-f4f6-4e61-8d0b-5f8de2d0446a);
      }

      .uuid-254377eb-2a2e-4668-b110-2fb850058efd {
        clip-path: url(#uuid-bebe6d2b-6a63-4088-a367-bb2706fabbe0);
      }

      .uuid-b3a51a88-96bb-454e-96ba-201dd02d9236 {
        fill: #e5eaea;
      }
    </style>
    <clipPath id="uuid-2394d84c-f4f6-4e61-8d0b-5f8de2d0446a">
      <rect class="uuid-741216a8-f51e-48bb-8482-09a5bdd6dd69" width="92.1" height="125"/>
    </clipPath>
    <clipPath id="uuid-bebe6d2b-6a63-4088-a367-bb2706fabbe0">
      <rect class="uuid-741216a8-f51e-48bb-8482-09a5bdd6dd69" width="92.1" height="125"/>
    </clipPath>
  </defs>
  <text class="uuid-0b79bd89-887c-409b-82ab-3bca24e21510" transform="translate(107.49 46.94)"><tspan x="0" y="0">Gamer</tspan><tspan class="uuid-546d7e45-e0f8-41b3-b823-6f473466cf1e" x="187.62" y="0">’</tspan><tspan x="195.54" y="0">s</tspan><tspan x="0" y="72">Fair</tspan></text>
  <g class="uuid-b8d41c8b-9805-4837-b0ea-375c650dd6c4">
    <g class="uuid-254377eb-2a2e-4668-b110-2fb850058efd">
      <path class="uuid-b3a51a88-96bb-454e-96ba-201dd02d9236" d="M19.2,35.86c1.69-1.53,3.57-3.14,5.26-4.67-.17-1.81-.41-4.02-.25-6.06.96-12.33,8.46-21.08,12.53-25.12-4.84,3.59-7.95,7.35-9.81,9.97-1.88,2.65-8.32,12.01-7.83,24.23.02.55.07,1.37.09,1.66"/>
      <path class="uuid-b3a51a88-96bb-454e-96ba-201dd02d9236" d="M92.02,63.29c-.37-3.52-1.93-5.96-2.69-7.22-2.26-3.78-3.25-7.01-5.24-13.46-.91-2.95-1.96-7.43-2.12-13.32-.43,1.85-.8,3.99-.99,6.37-.27,3.3-.13,6.23.14,8.64-3.66-2.5-6.68-4.91-9.07-6.94-5.96-5.09-9.99-9.67-11.76-11.76-2.79-3.29-4.99-6.32-6.65-8.77.52,1.91,1.42,4.72,3.01,7.91,2.32,4.65,4.04,5.97,7.83,11.62,3.06,4.56,4.92,7.36,6.56,11.62,1.93,5.03,2.26,8.79,2.65,13.12.34,3.86.2,6.48-1.15,8.98-.83,1.54-1.83,2.49-2.17,2.83-4.46,4.34-10.99,13.43-13.96,18.18-5.53,8.86-7.94,17.52-9.02,22.8,0-2.56.22-4.76.48-6.49.14-.92.74-4.83,2.56-9.67.24-.64,1.28-3.38,3.1-6.75.22-.41,1.2-2.22,2.74-4.56,1.55-2.37,2.63-3.72,3.74-5.2,1.8-2.4,4.89-6.81,7.58-12.23,1.72-3.48,2.15-5.1,2.37-6.39.38-2.15.25-3.7,0-6.48-.3-3.41-.69-7.39-2.83-11.86-.77-1.61-1.55-2.85-2.1-3.65.12,1.17.28,2.95.37,5.11.21,5.18.37,8.9-.82,13.42-.39,1.46-1.03,3.83-2.65,6.57-.92,1.56-1.92,2.85-2.88,3.9-1.33,1.46-3.62,1.51-5,.09-.08-.08-.16-.17-.24-.25-1.7-1.82-2.73-3.71-4.47-8.03-.98-2.42-2.12-5.46-3.27-9.05-1.15,3.59-2.29,6.64-3.27,9.05-1.74,4.32-2.78,6.21-4.47,8.03-.08.09-.16.17-.24.25-1.37,1.42-3.67,1.37-5-.09-.96-1.05-1.97-2.35-2.88-3.9-1.62-2.74-2.26-5.11-2.65-6.57-1.19-4.51-1.04-8.24-.82-13.42.09-2.16.25-3.94.37-5.11-.55.8-1.33,2.04-2.1,3.65-2.13,4.48-2.52,8.45-2.83,11.86-.25,2.78-.38,4.33,0,6.48.22,1.28.65,2.91,2.37,6.39,2.68,5.42,5.78,9.83,7.58,12.23,1.11,1.48,2.19,2.83,3.74,5.2,1.53,2.35,2.51,4.15,2.74,4.56,1.82,3.38,2.86,6.11,3.1,6.75,1.81,4.84,2.42,8.75,2.56,9.67.25,1.73.48,3.92.48,6.49-1.08-5.29-3.49-13.95-9.02-22.8-2.96-4.75-9.5-13.83-13.96-18.18-.35-.34-1.34-1.29-2.17-2.83-1.35-2.5-1.49-5.12-1.15-8.98.39-4.33.72-8.09,2.65-13.12,1.64-4.27,3.5-7.06,6.56-11.62,3.78-5.65,5.51-6.97,7.83-11.62,1.59-3.19,2.49-6,3.01-7.91-1.66,2.46-3.86,5.48-6.65,8.77-1.77,2.08-5.8,6.67-11.76,11.76-2.38,2.04-5.41,4.44-9.07,6.94.28-2.41.41-5.34.14-8.64-.19-2.39-.56-4.53-.99-6.37-.16,5.89-1.22,10.36-2.13,13.32-1.99,6.45-2.98,9.67-5.24,13.46-.76,1.27-2.32,3.71-2.69,7.22-.18,1.71-.02,3.14.14,4.11.28-1.16.88-2.98,2.27-4.82,2.24-2.96,5.16-4.13,6.37-4.53-.65,3.51-1.04,6.46-1.27,8.64-.41,3.76-.61,5.69-.43,8.22.1,1.3.38,3.98,1.42,7.22,1.2,3.75,2.9,6.68,4.39,8.78-.39-2.49-.3-4.54-.14-5.95.27-2.44.54-4.62,2.12-5.52.77-.44,1.58-.43,1.84-.42,1.62.04,2.79,1.12,3.33,1.64,2.94,2.81,4.65,4.69,5.59,5.81,1.04,1.25,2.11,2.47,3.19,3.68,2.51,2.82,3.89,4.75,6.8,8.98,2.61,3.8,7.42,11.94,10.35,25.87h0s0,0,0,0h0c2.93-13.93,7.74-22.07,10.35-25.87,2.91-4.23,4.29-6.17,6.8-8.98,1.08-1.21,2.15-2.44,3.19-3.68.94-1.12,2.65-3.01,5.59-5.81.54-.51,1.71-1.6,3.33-1.64.26,0,1.07-.02,1.84.42,1.58.91,1.85,3.08,2.13,5.52.16,1.41.25,3.46-.14,5.95,1.49-2.1,3.19-5.03,4.39-8.78,1.04-3.24,1.32-5.92,1.42-7.22.19-2.53-.01-4.46-.43-8.22-.24-2.18-.62-5.13-1.27-8.64,1.22.41,4.13,1.57,6.37,4.53,1.39,1.83,1.99,3.66,2.27,4.82.17-.96.32-2.4.14-4.11"/>
      <path class="uuid-b3a51a88-96bb-454e-96ba-201dd02d9236" d="M67.88,25.12c.16,2.04-.08,4.25-.25,6.06,1.69,1.53,3.57,3.14,5.26,4.67.02-.29.07-1.11.09-1.66.49-12.22-5.95-21.58-7.83-24.23C63.3,7.35,60.2,3.59,55.35,0c4.07,4.04,11.57,12.8,12.53,25.12"/>
    </g>
  </g>
</svg>