<svg xmlns="http://www.w3.org/2000/svg" version="1.1" xmlns:xlink="http://www.w3.org/1999/xlink" xmlns:svgjs="http://svgjs.com/svgjs" width="4096" height="4096"><svg id="SvgjsSvg1000" data-name="Logo" xmlns="http://www.w3.org/2000/svg" viewBox="0 0 4096 4096">
  <defs>
    <style>
      .uuid-329193e7-8110-47cf-9ad9-06639f7cd6a4 {
        fill: #191630;
      }

      .uuid-329193e7-8110-47cf-9ad9-06639f7cd6a4, .uuid-a4d3326a-a02d-42bd-98c1-a1572f9e8b30 {
        stroke-width: 0px;
      }

      .uuid-a4d3326a-a02d-42bd-98c1-a1572f9e8b30 {
        fill: #ecf0f1;
      }
    </style>
  </defs>
  <rect class="uuid-329193e7-8110-47cf-9ad9-06639f7cd6a4" x="0" y="0" width="4096" height="4096" rx="2048" ry="2048"></rect>
  <g>
    <path class="uuid-a4d3326a-a02d-42bd-98c1-a1572f9e8b30" d="M1188.9,1195.39c54.12-48.87,114.28-100.62,168.4-149.49-5.36-57.86-12.97-128.64-7.89-193.97,30.66-394.4,270.7-674.52,400.9-803.93-154.98,114.76-254.37,235.19-313.79,319.05-60.08,84.8-266.29,384.27-250.51,775.21.71,17.61,2.14,43.77,2.89,53.14Z"></path>
    <path class="uuid-a4d3326a-a02d-42bd-98c1-a1572f9e8b30" d="M3519.07,2073.13c-11.86-112.58-61.86-190.59-86.13-231.19-72.37-121.05-104.16-224.25-167.73-430.64-29.11-94.49-62.86-237.61-68-426.11-13.68,59.18-25.51,127.62-31.73,203.99-8.62,105.74-4.29,199.4,4.53,276.52-117.08-80.11-213.87-156.97-290.13-222.12-190.7-162.91-319.7-309.55-376.27-376.25-89.42-105.44-159.82-202.18-212.91-280.77,16.6,61.06,45.5,151.18,96.34,253.2,74.21,148.9,129.3,190.98,250.4,371.9,97.78,146.07,157.56,235.39,209.89,371.9,61.65,160.81,72.36,281.23,84.69,419.77,10.99,123.45,6.29,207.21-36.82,287.21-26.62,49.39-58.44,79.84-69.5,90.6-142.76,138.96-351.8,429.65-446.68,581.62-176.98,283.48-254.04,560.54-288.5,729.75.07-82.06,7.13-152.33,15.29-207.55,4.35-29.41,23.8-154.72,81.78-309.56,7.65-20.43,40.94-108.08,99.3-216.11,7.15-13.23,38.52-70.92,87.62-146.02,49.56-75.82,84.24-118.98,119.74-166.46,57.52-76.93,156.53-217.81,242.4-391.33,55.13-111.41,68.76-163.35,75.93-204.43,12.01-68.71,7.95-118.27,0-207.35-9.74-109.11-22.23-236.36-90.54-379.65-24.54-51.48-49.7-91.23-67.17-116.82,3.82,37.54,8.81,94.3,11.68,163.54,6.87,165.73,11.82,284.89-26.28,429.3-12.33,46.74-32.9,122.47-84.7,210.27-29.41,49.85-61.6,91.24-92.29,124.93-42.62,46.79-115.98,48.38-159.97,2.88-2.55-2.63-5.1-5.33-7.66-8.08-54.28-58.4-87.37-118.82-143.11-256.99-31.21-77.36-67.8-174.84-104.53-289.68-36.73,114.84-73.33,212.33-104.53,289.68-55.74,138.17-88.82,198.6-143.11,256.99-2.56,2.76-5.12,5.45-7.66,8.08-43.99,45.5-117.35,43.9-159.97-2.88-30.69-33.69-62.88-75.08-92.29-124.93-51.8-87.8-72.36-163.52-84.7-210.27-38.1-144.4-33.16-263.57-26.28-429.3,2.87-69.24,7.86-126,11.68-163.54-17.47,25.58-42.63,65.34-67.17,116.82-68.3,143.29-80.8,270.54-90.54,379.65-7.95,89.07-12.01,138.64,0,207.35,7.18,41.08,20.8,93.01,75.93,204.43,85.87,173.52,184.89,314.4,242.4,391.33,35.5,47.48,70.18,90.65,119.74,166.46,49.09,75.1,80.47,132.79,87.62,146.02,58.36,108.03,91.65,195.68,99.3,216.11,57.97,154.84,77.43,280.15,81.78,309.56,8.16,55.22,15.22,125.48,15.29,207.55-34.46-169.21-111.53-446.27-288.5-729.75-94.88-151.97-303.92-442.66-446.68-581.62-11.06-10.76-42.88-41.21-69.5-90.6-43.11-80-47.81-163.76-36.82-287.21,12.33-138.54,23.05-258.96,84.69-419.77,52.33-136.51,112.12-225.82,209.89-371.9,121.1-180.92,176.19-223,250.4-371.9,50.84-102.02,79.74-192.14,96.34-253.2-53.09,78.59-123.5,175.33-212.91,280.77-56.56,66.7-185.57,213.33-376.27,376.25-76.27,65.15-173.06,142.02-290.13,222.12,8.82-77.12,13.16-170.78,4.53-276.52-6.23-76.37-18.05-144.81-31.73-203.99-5.14,188.5-38.9,331.62-68,426.11-63.58,206.4-95.36,309.59-167.73,430.64-24.27,40.6-74.27,118.61-86.13,231.19-5.76,54.64-.77,100.62,4.53,131.46,8.92-37.16,28.17-95.48,72.53-154.12,71.77-94.88,164.98-132.02,204-145.06-20.8,112.26-33.16,206.82-40.8,276.52-13.18,120.2-19.64,181.96-13.6,262.92,3.11,41.61,12.18,127.47,45.33,231.19,38.34,119.96,92.93,213.85,140.53,281.05-12.4-79.69-9.53-145.35-4.53-190.39,8.68-78.22,17.36-147.73,68-176.79,24.56-14.1,50.49-13.79,58.93-13.6,51.8,1.2,89.22,35.99,106.43,52.44,94.01,89.88,148.66,150.15,178.72,186.05,33.37,39.85,67.56,79.04,102.17,117.82,80.4,90.09,124.54,152.03,217.56,287.49,83.46,121.54,237.48,382.22,331.24,827.9,0,0,0,0,0,0h0s0,0,0,0c0,0,0,0,0,0h0s0,0,0,0c93.76-445.68,247.78-706.36,331.24-827.9,93.02-135.46,137.16-197.4,217.56-287.49,34.61-38.78,68.8-77.97,102.17-117.82,30.06-35.9,84.71-96.17,178.72-186.05,17.21-16.45,54.63-51.24,106.43-52.44,8.44-.2,34.37-.5,58.93,13.6,50.64,29.06,59.32,98.57,68,176.79,5,45.04,7.87,110.7-4.53,190.39,47.6-67.2,102.19-161.09,140.53-281.05,33.15-103.72,42.23-189.58,45.33-231.19,6.04-80.96-.42-142.71-13.6-262.92-7.64-69.69-20-164.26-40.8-276.52,39.02,13.04,132.23,50.18,204,145.06,44.36,58.64,63.61,116.96,72.53,154.12,5.3-30.84,10.29-76.82,4.53-131.46Z"></path>
    <path class="uuid-a4d3326a-a02d-42bd-98c1-a1572f9e8b30" d="M2746.6,851.93c5.08,65.33-2.53,136.11-7.89,193.97,54.12,48.87,114.28,100.62,168.4,149.49.75-9.36,2.18-35.52,2.89-53.14,15.79-390.94-190.42-690.41-250.51-775.21-59.42-83.86-158.81-204.29-313.79-319.05,130.21,129.42,370.24,409.53,400.9,803.93Z"></path>
  </g>
</svg><style>@media (prefers-color-scheme: light) { :root { filter: none; } }
</style></svg>